<svg width="21" height="16" viewBox="0 0 23 24" fill="none" xmlns="http://www.w3.org/2000/svg">
<path d="M20.125 8C18.7355 8 17.9592 9.44 18.2755 10.51L14.8734 14.07C14.5859 13.98 14.1642 13.98 13.8767 14.07L11.433 11.52C11.7588 10.45 10.9825 9 9.58337 9C8.19379 9 7.40796 10.44 7.73379 11.52L3.36379 16.07C2.33837 15.74 0.958374 16.55 0.958374 18C0.958374 19.1 1.82087 20 2.87504 20C4.26462 20 5.04087 18.56 4.72462 17.49L9.08504 12.93C9.37254 13.02 9.79421 13.02 10.0817 12.93L12.5255 15.48C12.1996 16.55 12.9759 18 14.375 18C15.7646 18 16.5505 16.56 16.2246 15.48L19.6363 11.93C20.6617 12.26 22.0417 11.45 22.0417 10C22.0417 8.9 21.1792 8 20.125 8Z" fill="white"/>
<path d="M14.375 9L15.2758 6.93L17.25 6L15.2758 5.07L14.375 3L13.4933 5.07L11.5 6L13.4933 6.93L14.375 9Z" fill="white"/>
<path d="M3.35421 11L3.83337 9L5.75004 8.5L3.83337 8L3.35421 6L2.87504 8L0.958374 8.5L2.87504 9L3.35421 11Z" fill="white"/>
</svg>
