<svg width="18" height="20" viewBox="0 0 18 20" fill="none" xmlns="http://www.w3.org/2000/svg">
<path d="M15.4167 2H11.585C11.2 0.84 10.1917 0 9 0C7.80833 0 6.8 0.84 6.415 2H2.58333C2.455 2 2.33583 2.01 2.21667 2.04C1.85917 2.12 1.53833 2.32 1.29083 2.59C1.12583 2.77 0.988333 2.99 0.896667 3.23C0.805 3.46 0.75 3.72 0.75 4V18C0.75 18.27 0.805 18.54 0.896667 18.78C0.988333 19.02 1.12583 19.23 1.29083 19.42C1.53833 19.69 1.85917 19.89 2.21667 19.97C2.33583 19.99 2.455 20 2.58333 20H15.4167C16.425 20 17.25 19.1 17.25 18V4C17.25 2.9 16.425 2 15.4167 2ZM8.08333 13.17L6.79083 14.59L3.5 11L6.79083 7.41L8.08333 8.83L6.09417 11L8.08333 13.17ZM9 3.25C8.62417 3.25 8.3125 2.91 8.3125 2.5C8.3125 2.09 8.62417 1.75 9 1.75C9.37583 1.75 9.6875 2.09 9.6875 2.5C9.6875 2.91 9.37583 3.25 9 3.25ZM11.2092 14.59L9.91667 13.17L11.9058 11L9.91667 8.83L11.2092 7.41L14.5 11L11.2092 14.59Z" fill="white"/>
</svg>
